HIERARCHY
ROOT root
{
	OFFSET	0	13.1	24.9
	CHANNELS 6  Xposition Yposition Zposition Xrotation Yrotation Zrotation
	JOINT spine_1
	{
		OFFSET	0	9.99999	0
		CHANNELS 3  Xrotation Yrotation Zrotation
		JOINT spine_2
		{
			OFFSET	0	112	-10
			CHANNELS 3  Xrotation Yrotation Zrotation
			JOINT spine_3
			{
				OFFSET	0	206.5	19.3
				CHANNELS 3  Xrotation Yrotation Zrotation
				JOINT spine_4
				{
					OFFSET	0	110.4	14.6
					CHANNELS 3  Xrotation Yrotation Zrotation
					JOINT neck_1
					{
						OFFSET	0	71.8	-50.3
						CHANNELS 3  Xrotation Yrotation Zrotation
						JOINT neck_2
						{
							OFFSET	0	86.2	-25.8
							CHANNELS 3  Xrotation Yrotation Zrotation
							JOINT head_ee
							{
								OFFSET	0	179.8	-8.7
								CHANNELS 3  Xrotation Yrotation Zrotation
								End Site
								{
									OFFSET	1	0	0
								}
							}
						}
					}
					JOINT left_clavicle
					{
						OFFSET	-43.2	22.4	-70.8
						CHANNELS 3  Xrotation Yrotation Zrotation
						JOINT left_shoulder
						{
							OFFSET	-93.9	-5.79999	48.7
							CHANNELS 3  Xrotation Yrotation Zrotation
							JOINT left_elbow
							{
								OFFSET	-291.4	-30.8	15.2
								CHANNELS 3  Xrotation Yrotation Zrotation
								JOINT left_lowarm_twist
								{
									OFFSET	-110.7	-3.89999	13.6
									CHANNELS 3  Xrotation Yrotation Zrotation
									JOINT left_hand
									{
										OFFSET	-110.7	-3.89999	13.6
										CHANNELS 3  Xrotation Yrotation Zrotation
										JOINT left_ee
										{
											OFFSET	-80.8	-5.10001	12.1
											CHANNELS 3  Xrotation Yrotation Zrotation
											End Site
											{
												OFFSET	1	0	0
											}
										}
									}
								}
							}
						}
					}
					JOINT right_clavicle
					{
						OFFSET	43.2	22.4	-70.8
						CHANNELS 3  Xrotation Yrotation Zrotation
						JOINT right_shoulder
						{
							OFFSET	93.9	-5.79999	48.7
							CHANNELS 3  Xrotation Yrotation Zrotation
							JOINT right_elbow
							{
								OFFSET	291.4	-30.8	15.2
								CHANNELS 3  Xrotation Yrotation Zrotation
								JOINT right_lowarm_twist
								{
									OFFSET	110.7	-3.89999	13.6
									CHANNELS 3  Xrotation Yrotation Zrotation
									JOINT right_hand
									{
										OFFSET	110.7	-3.89999	13.6
										CHANNELS 3  Xrotation Yrotation Zrotation
										JOINT right_ee
										{
											OFFSET	80.8	-5.10001	12.1
											CHANNELS 3  Xrotation Yrotation Zrotation
											End Site
											{
												OFFSET	1	0	0
											}
										}
									}
								}
							}
						}
					}
				}
			}
		}
	}
	JOINT left_hip
	{
		OFFSET	-82.8	-127.5	0.300001
		CHANNELS 3  Xrotation Yrotation Zrotation
		JOINT left_knee
		{
			OFFSET	-28.2	-396.7	2.2
			CHANNELS 3  Xrotation Yrotation Zrotation
			JOINT left_ankle
			{
				OFFSET	-11.7	-411.3	35.4
				CHANNELS 3  Xrotation Yrotation Zrotation
				JOINT left_toes
				{
					OFFSET	0	-60	-88.6
					CHANNELS 3  Xrotation Yrotation Zrotation
					JOINT left_foot_ee
					{
						OFFSET	-22.5	-16.5	-42.2
						CHANNELS 3  Xrotation Yrotation Zrotation
						End Site
						{
							OFFSET	1	0	0
						}
					}
				}
			}
		}
	}
	JOINT right_hip
	{
		OFFSET	82.8	-127.5	0.300001
		CHANNELS 3  Xrotation Yrotation Zrotation
		JOINT right_knee
		{
			OFFSET	28.2	-396.7	2.2
			CHANNELS 3  Xrotation Yrotation Zrotation
			JOINT right_ankle
			{
				OFFSET	11.7	-411.3	35.4
				CHANNELS 3  Xrotation Yrotation Zrotation
				JOINT right_toes
				{
					OFFSET	0	-60	-88.6
					CHANNELS 3  Xrotation Yrotation Zrotation
					JOINT right_foot_ee
					{
						OFFSET	22.5	-16.5	-42.2
						CHANNELS 3  Xrotation Yrotation Zrotation
						End Site
						{
							OFFSET	1	0	0
						}
					}
				}
			}
		}
	}
}
MOTION
Frames: 9
Frame Time: 0.02
2317.66 753.965 -1510.16 10.7212 57.3676 -15.1016 -2.17676 0.514809 2.65473 -2.17291 0.344901 2.68208 -2.15219 -0.327658 2.68424 -2.16223 0.10022 2.70229 -2.79211 20.8033 3.46298 -2.19465 35.2518 6.42942 -0.0 0.0 -0.0 1.23269 16.4828 3.86133 -7.75108 -7.24149 55.5037 2.05732 -45.5376 0.863577 -51.6688 -4.26859 4.76732 -3.57555 5.05562 -21.9208 -0.0 0.0 -0.0 11.8426 27.3123 -22.8687 -23.0412 46.8978 -55.2409 0.340909 9.58565 -0.028584 -13.5331 0.668289 -1.59207 3.05638 8.18699 -17.4203 0.0 0.0 0.0 -12.1448 31.4638 4.33865 -3.65408 0.133108 0.544896 3.2927 4.28843 -0.478983 3.75954 -0.0 -0.0 -0.0 0.0 -0.0 -11.7706 36.3218 7.32176 -8.58313 -0.257094 -1.29093 28.7346 3.52471 3.80649 -26.7848 0.0 0.0 0.0 0.0 0.0 
2320.0 759.68 -1511.88 10.4003 58.251 -14.7371 -2.12961 0.62786 2.78243 -2.12541 0.449606 2.8167 -2.09817 -0.25664 2.84077 -2.10938 0.195041 2.84566 -2.3709 20.9567 3.61725 -1.71308 35.2977 6.48527 -0.0 0.0 -0.0 1.17062 16.5072 3.76628 -8.12901 -7.05779 55.5512 2.08385 -45.9044 0.882572 -51.9569 -4.30281 4.78132 -3.57028 4.76511 -22.0434 -0.0 0.0 -0.0 11.9957 27.2987 -23.2185 -22.6455 47.1469 -55.3205 0.339502 9.54683 -0.0283503 -13.7605 0.682688 -1.61737 3.06332 8.07596 -17.519 0.0 0.0 0.0 -10.8417 31.6711 3.63961 -3.74973 0.136124 0.559265 3.56939 4.27846 -0.518837 3.88346 -0.0 -0.0 -0.0 0.0 -0.0 -12.0151 36.3331 7.00842 -8.6432 -0.258208 -1.30008 30.016 3.85701 3.94933 -26.4991 0.0 0.0 0.0 0.0 0.0 
2322.94 752.269 -1514.38 9.01169 58.2408 -13.4481 -1.87619 0.712618 2.94165 -1.87153 0.524075 2.98098 -1.83878 -0.2111 3.0193 -1.8514 0.268169 3.01477 -3.30527 20.7827 3.79024 -2.78111 35.1024 6.91775 -0.0 0.0 -0.0 1.14987 16.3494 3.72061 -8.55116 -7.20217 55.3488 2.12219 -46.426 0.910227 -51.5815 -4.25824 4.76305 -3.51307 4.30243 -21.889 -0.0 0.0 -0.0 12.1854 27.3435 -23.6454 -21.4642 47.6296 -55.0838 0.345193 9.70384 -0.0293017 -14.2575 0.714499 -1.67245 2.92902 6.9372 -17.074 0.0 0.0 0.0 -8.8026 31.9308 2.50537 -5.94276 0.198665 0.889994 3.8266 6.19797 -0.554843 4.61059 -0.0 -0.0 -0.0 0.0 -0.0 -12.0767 35.5118 7.17205 -8.28454 -0.251414 -1.24546 29.7234 3.9635 3.91916 -26.5317 0.0 0.0 0.0 0.0 0.0 
2322.21 752.3 -1518.56 8.9427 58.5294 -13.4715 -1.72682 0.789318 3.05055 -1.72183 0.5937 3.09453 -1.684 -0.162359 3.14673 -1.69766 0.336396 3.13292 -3.95349 20.5808 3.74383 -3.52309 34.9381 7.03496 -0.0 0.0 -0.0 1.12434 16.4455 3.68874 -9.84679 -7.10035 55.4615 2.10198 -46.1523 0.89562 -51.3211 -4.22738 4.75021 -3.45434 3.97053 -21.6506 -0.0 0.0 -0.0 12.5583 27.3471 -24.4973 -19.3807 48.3569 -55.0375 0.362183 10.1717 -0.0322339 -14.5243 0.731779 -1.70191 2.8305 6.20882 -16.697 0.0 0.0 0.0 -7.30097 32.1067 1.72556 -7.51356 0.235653 1.1282 3.96061 7.70802 -0.573719 5.11951 -0.0 -0.0 -0.0 0.0 -0.0 -11.9846 34.7204 6.9662 -8.00096 -0.245801 -1.20231 29.5152 4.03242 3.89752 -26.5587 0.0 0.0 0.0 0.0 0.0 
2323.26 743.88 -1528.2 7.85613 58.5614 -12.8644 -1.81017 0.848089 3.17449 -1.8048 0.644477 3.22195 -1.76212 -0.147901 3.28238 -1.77696 0.372064 3.2646 -4.34784 20.0646 2.76704 -3.98194 34.8154 6.07842 -0.0 0.0 -0.0 0.792221 16.8163 3.20369 -11.3725 -7.05057 55.4228 2.08778 -45.9583 0.885392 -50.6722 -4.15076 4.71759 -3.34304 2.81066 -21.4779 -0.0 0.0 -0.0 12.8906 27.2944 -25.2667 -17.6778 48.9239 -54.9769 0.383291 10.751 -0.0360667 -14.8132 0.750642 -1.73372 2.63387 6.10355 -15.3625 0.0 0.0 0.0 -5.66982 32.2182 -0.238846 -8.67018 0.258705 1.30419 4.06691 9.94582 -0.58918 5.55004 -0.0 -0.0 -0.0 0.0 -0.0 -12.0075 34.2181 6.91447 -8.19284 -0.249622 -1.23151 30.0951 5.04808 3.9731 -25.7538 0.0 0.0 0.0 0.0 0.0 
2314.43 739.703 -1535.49 7.71423 57.8701 -12.602 -1.64639 0.864792 3.31561 -1.64051 0.652181 3.36385 -1.59554 -0.164544 3.42246 -1.61169 0.377715 3.40556 -4.92285 18.9543 0.488801 -4.63753 34.5735 3.7526 -0.0 0.0 -0.0 0.684017 17.0738 3.06016 -13.5504 -9.39153 55.1989 1.92812 -43.6808 0.772833 -49.0232 -3.95776 4.63084 -2.92818 1.22797 -19.3493 -0.0 0.0 -0.0 13.1631 27.1487 -25.9133 -15.6393 49.5829 -54.869 0.414766 11.6108 -0.0421701 -15.3479 0.785972 -1.79232 2.63661 6.08291 -15.3906 0.0 0.0 0.0 -0.473811 32.7946 -2.6654 -19.1143 0.305126 2.90379 6.9807 14.2399 -1.00798 8.94175 -0.0 -0.0 -0.0 0.0 -0.0 -12.3263 34.4397 6.28043 -7.60984 -0.237708 -1.14284 31.6897 7.02642 4.17188 -25.7125 0.0 0.0 0.0 0.0 0.0 
2309.23 737.762 -1537.82 8.12763 58.0815 -12.9259 -1.63852 0.706446 3.43903 -1.63207 0.486316 3.47695 -1.59579 -0.352858 3.493 -1.61276 0.202875 3.50489 -4.56738 18.1199 -0.755562 -4.22904 33.8846 2.22497 -0.0 0.0 -0.0 0.302258 17.35 2.49871 -17.491 -11.6419 55.2478 1.87568 -42.8926 0.736875 -47.672 -3.8015 4.55564 -2.45674 -2.50959 -17.8495 -0.0 0.0 -0.0 13.3707 26.5941 -26.4632 -13.6709 50.3488 -55.4945 0.426603 11.9328 -0.0445849 -15.4843 0.795075 -1.80723 2.27912 8.57507 -11.8283 0.0 0.0 0.0 2.12341 33.026 -4.24071 -25.9316 0.178273 3.94162 10.4925 17.4328 -1.50987 10.9427 -0.0 -0.0 -0.0 0.0 -0.0 -12.2364 33.1311 5.62951 -8.80647 -0.261187 -1.32496 32.1393 8.46328 4.24425 -25.6036 0.0 0.0 0.0 0.0 0.0 
2300.27 739.764 -1543.1 8.90729 58.5599 -13.2475 -1.64617 0.614247 3.51883 -1.63937 0.389235 3.55073 -1.6084 -0.465666 3.54153 -1.62589 0.0991276 3.5706 -4.31833 17.5285 -1.62613 -3.93865 33.3999 1.15295 -0.0 0.0 -0.0 0.0972096 17.7049 2.22235 -20.395 -13.1683 55.4088 1.83247 -42.2276 0.707648 -46.7561 -3.69661 4.50258 -2.12534 -5.11922 -16.7311 -0.0 0.0 -0.0 13.5914 26.2365 -27.0201 -12.3525 50.9476 -55.9528 0.440462 12.3088 -0.0474949 -15.5517 0.799586 -1.81458 2.0276 10.3767 -9.31243 0.0 0.0 0.0 3.93478 33.1461 -5.33662 -30.7014 0.0165606 4.65557 12.9276 19.7276 -1.85897 12.3246 -0.0 -0.0 -0.0 0.0 -0.0 -12.1754 32.2171 5.17692 -9.80119 -0.277806 -1.47669 32.5464 9.51269 4.30711 -25.4814 0.0 0.0 0.0 0.0 0.0 
2295.94 730.113 -1545.2 7.03162 58.3099 -12.1125 -1.49348 0.665111 3.60424 -1.48636 0.434572 3.6392 -1.45179 -0.432637 3.63943 -1.47024 0.147174 3.66206 -4.14715 17.1001 -2.25553 -3.73647 33.055 0.379535 -0.0 0.0 -0.0 -0.0279329 18.1015 2.07607 -23.324 -14.2728 56.1196 1.81571 -41.9658 0.696413 -46.2824 -3.6427 4.47449 -1.77307 -7.57178 -15.3649 -0.0 0.0 -0.0 13.846 26.2562 -27.6111 -10.585 51.5843 -56.2852 0.454507 12.6887 -0.0505347 -15.6908 0.808921 -1.82974 1.79286 11.6401 -7.15724 0.0 0.0 0.0 5.58742 31.477 -6.16439 -32.4875 -0.0592205 4.91916 14.5905 20.8152 -2.09448 12.2445 -0.0 -0.0 -0.0 0.0 -0.0 -12.3832 31.3472 4.39089 -10.462 -0.287389 -1.57763 32.8392 12.4632 4.40482 -25.3288 0.0 0.0 0.0 0.0 0.0 
